<svg width="896" height="234" viewBox="0 0 896 234" fill="none" xmlns="http://www.w3.org/2000/svg">
<g clip-path="url(#clip0_142_23)">
<path d="M228.023 0H0V234.07H228.023V0Z" fill="url(#paint0_linear_142_23)"/>
<path d="M49.4971 177.811V163.297L51.9201 163.047C63.5671 161.849 69.1371 159.267 76.6041 151.602C85.3121 142.662 91.1441 131.458 100.801 105.112C107.191 87.6804 112.488 77.0964 120.786 65.1794C128.029 54.7794 139.508 46.3504 152.361 41.9954C158.693 39.8494 167.308 38.2754 172.722 38.2754H174.8V67.3334L172.377 67.5504C165.954 68.1264 160.748 69.7614 155.722 72.7824C149.037 76.8014 140.825 87.1174 136.207 97.2994C134.605 100.833 133.721 100.56 146.795 100.56H158.285V130.037L140.66 130.132L123.036 130.228L121.098 134.626C116.128 145.9 110.332 156.516 104.653 164.746C93.7401 180.559 79.1711 189.156 58.8311 191.787C56.5611 192.081 53.5311 192.322 52.0991 192.324L49.4961 192.327V177.813L49.4971 177.811Z" fill="white"/>
<path d="M302.216 35.79L278.362 98.27H287.669C289.557 92.95 291.447 87.63 293.337 82.311H321.097L326.762 98.271H335.944L312.084 35.663H302.264L302.216 35.79ZM318.325 74.913H296.025L307.153 44.731L318.325 74.913ZM344.497 35.862V98.27C352.195 98.173 359.904 98.486 367.595 98.07C375.497 97.475 383.892 95.488 389.661 89.692C395.397 83.89 397.131 75.397 397.181 67.503C397.271 59.53 395.816 50.916 390.259 44.833C384.787 38.843 376.477 36.652 368.661 35.948C361.185 35.39 353.677 35.779 346.187 35.663C345.713 35.788 344.627 35.407 344.497 35.862ZM363.277 42.979C371.687 42.784 381.73 45.223 385.432 53.654C388.191 59.785 388.302 66.779 387.445 73.344C386.683 79.012 383.901 84.788 378.723 87.628C371.567 91.71 363.026 90.87 355.074 90.956C353.381 91.395 353.042 90.479 353.311 88.956V42.979H363.276H363.277ZM434.796 34.548C427.373 34.582 419.846 37.414 414.828 43.001C408.68 49.487 406.443 58.698 406.582 67.431C406.562 76.103 408.997 85.203 415.247 91.492C420.497 97.058 428.272 99.635 435.814 99.477C443.228 99.557 450.822 96.929 455.952 91.44C462.161 85.112 464.592 76.022 464.559 67.344C464.683 58.682 462.463 49.561 456.407 43.1C451.462 37.513 444.011 34.625 436.633 34.554C436.021 34.5363 435.409 34.5343 434.796 34.548ZM435.612 41.77C441.192 41.635 446.786 44.13 450.077 48.692C455.035 55.213 455.78 63.917 455.033 71.843C454.377 78.693 451.43 85.79 445.469 89.606C440.137 92.876 433.136 93.059 427.466 90.556C421.32 87.683 417.674 81.2 416.532 74.715C415.34 67.583 415.539 59.972 418.38 53.235C420.749 47.598 425.883 42.893 432.097 42.053C433.257 41.857 434.436 41.781 435.612 41.77ZM477.329 35.862V98.27C485.824 98.205 494.325 98.401 502.816 98.17C508.993 97.824 515.699 95.671 519.251 90.26C522.225 85.621 522.535 79.566 520.846 74.409C519.134 69.416 514.608 65.721 509.522 64.551C513.699 63.819 517.422 60.751 518.539 56.6C520.069 51.191 519.405 44.607 515.069 40.631C510.312 36.218 503.43 35.534 497.228 35.663H477.328L477.329 35.862ZM498.401 42.979C502.315 42.981 507.046 43.634 509.257 47.303C510.883 50.391 510.867 54.451 509.005 57.436C506.397 61.121 501.359 61.369 497.201 61.331H486.145V42.979H498.401ZM499.444 68.561C503.663 68.546 508.662 69.374 511.055 73.284C512.988 76.761 513.005 81.258 511.69 84.908C510.28 88.785 506.048 90.553 502.202 90.821C496.859 91.123 491.496 90.875 486.145 90.956V68.561H499.444ZM535.829 35.862V98.27H576.311V90.788H544.645V68.645H574.27V61.163H544.645V43.145H575.561V35.663H535.829V35.862ZM286.163 142.53V204.936H294.977V175.229H319.645V167.747H294.977V149.811H322.311V142.331H286.163V142.53ZM335.329 142.53V204.936H374.436V197.456H344.146V142.331H335.329V142.53ZM400.883 142.458L377.03 204.936H386.337L392.003 188.979H419.763L425.43 204.936H434.612C426.657 184.068 418.704 163.199 410.751 142.331H400.932L400.883 142.458ZM416.991 181.581H394.691L405.821 151.397L416.991 181.581ZM461.184 141.223C454.686 141.353 447.644 143.378 443.59 148.793C440.068 153.529 439.603 160.093 441.48 165.575C443.217 170.508 448.062 173.398 452.809 174.897C458.775 177.034 465.497 176.79 471.049 179.987C474.315 181.764 475.779 185.667 475.368 189.237C475.233 193.224 472.175 196.558 468.473 197.728C461.485 200.003 453.777 198.806 447.072 196.098C444.866 195.21 442.735 194.148 440.662 192.983V202.128C450.35 205.754 461.142 207.546 471.302 204.862C476.766 203.482 481.93 199.701 483.622 194.142C485.23 188.815 485.03 182.634 482.038 177.817C478.473 172.301 471.831 170.022 465.675 168.879C461.056 167.764 456.047 167.476 451.981 164.837C448.893 162.472 448.701 157.833 450.049 154.504C451.977 150.206 457.013 148.747 461.355 148.504C468.163 148.004 474.805 150.174 480.852 153.094V144.424C474.528 142.308 467.875 141.038 461.184 141.224V141.223ZM497.329 142.53V204.936H506.145V175.311H536.329V204.936H545.145V142.331H536.329V167.831H506.145V142.331H497.329V142.53ZM588.663 142.53V204.936H597.477V179.936C603.739 179.739 610.134 180.531 616.277 178.977C621.577 177.76 626.411 173.988 628.073 168.697C629.683 163.651 629.667 158.01 627.868 153.014C625.924 147.665 620.751 144.107 615.298 143.064C609.436 141.827 603.403 142.509 597.462 142.331H588.662L588.663 142.53ZM607.858 149.645C612.092 149.515 616.82 151.202 618.725 155.221C620.413 158.967 620.414 163.515 618.625 167.228C616.619 171.225 611.874 172.771 607.658 172.622H597.478V149.645H607.858ZM640.163 142.53V204.936H679.27V197.456H648.977V142.331H640.163V142.53ZM705.716 142.458L681.862 204.936H691.169C693.057 199.617 694.947 194.298 696.837 188.979H724.597L730.262 204.936H739.444L715.584 142.331H705.764L705.716 142.458ZM721.825 181.581H699.525L710.653 151.397L721.825 181.581ZM732.821 142.641L754.788 175.175V204.936H763.645V175.175C771.038 164.227 778.429 153.278 785.823 142.331H776.296L759.278 167.753C753.563 159.279 747.85 150.803 742.133 142.331H732.61L732.722 142.496L732.821 142.641ZM793.497 142.53V204.936H833.977V197.456H802.311V175.311H831.936V167.831H802.311V149.811H833.227V142.331H793.497V142.53ZM847.497 142.53V204.936H856.311V178.646C860.565 178.799 864.874 178.288 869.088 179.008C872.349 179.514 874.995 181.942 876.654 184.731C879.77 189.917 882.159 195.503 884.956 200.863C885.704 202.173 886.245 203.815 887.112 204.936H896.477C892.869 197.92 889.529 190.759 885.743 183.841C883.753 180.588 881.413 177.188 877.811 175.591C882.536 174.239 886.372 170.29 887.469 165.485C888.569 160.591 888.239 155.187 885.886 150.696C883.223 145.653 877.482 143.27 872.068 142.659C866.236 142.017 860.35 142.465 854.496 142.331H847.496L847.497 142.53ZM866.692 149.645C870.727 149.583 875.329 150.71 877.44 154.503C879.21 157.92 879.189 162.202 877.813 165.68C876.274 169.401 872.209 171.093 868.452 171.263C864.408 171.419 860.357 171.288 856.312 171.331V149.645H866.692Z" fill="#333333"/>
</g>
<defs>
<linearGradient id="paint0_linear_142_23" x1="139.274" y1="184.651" x2="102.765" y2="37.894" gradientUnits="userSpaceOnUse">
<stop stop-color="#7C1315"/>
<stop offset="1" stop-color="#E81C24"/>
</linearGradient>
<clipPath id="clip0_142_23">
<rect width="896" height="234" fill="white"/>
</clipPath>
</defs>
</svg>
