<svg width="896" height="234" viewBox="0 0 896 234" fill="none" xmlns="http://www.w3.org/2000/svg">
<g clip-path="url(#clip0_143_99)">
<path d="M296.224 34.7273H304.999L322.547 64.2628H323.288L340.837 34.7273H349.611L326.749 71.9247V98H319.087V71.9247L296.224 34.7273ZM366.294 99.1122C363.287 99.1122 360.558 98.5458 358.107 97.413C355.656 96.2596 353.71 94.6016 352.268 92.4389C350.826 90.2557 350.105 87.6193 350.105 84.5298C350.105 81.8111 350.641 79.6072 351.712 77.9183C352.783 76.2088 354.214 74.87 356.006 73.902C357.798 72.9339 359.775 72.2131 361.938 71.7393C364.121 71.245 366.315 70.8537 368.518 70.5653C371.402 70.1946 373.74 69.9165 375.532 69.7312C377.344 69.5252 378.662 69.1854 379.486 68.7116C380.331 68.2379 380.753 67.4141 380.753 66.2401V65.9929C380.753 62.9446 379.919 60.576 378.25 58.8871C376.603 57.1982 374.1 56.3537 370.743 56.3537C367.262 56.3537 364.533 57.1158 362.556 58.6399C360.578 60.1641 359.188 61.7912 358.385 63.5213L351.464 61.0497C352.7 58.1662 354.348 55.9212 356.408 54.3146C358.488 52.6875 360.754 51.5547 363.205 50.9162C365.676 50.2571 368.107 49.9276 370.496 49.9276C372.02 49.9276 373.771 50.1129 375.748 50.4837C377.746 50.8338 379.672 51.565 381.525 52.6772C383.4 53.7894 384.955 55.468 386.19 57.7131C387.426 59.9581 388.044 62.9652 388.044 66.7344V98H380.753V91.5739H380.382C379.888 92.6037 379.064 93.7056 377.911 94.8796C376.757 96.0536 375.223 97.0526 373.307 97.8764C371.392 98.7003 369.054 99.1122 366.294 99.1122ZM367.406 92.5625C370.29 92.5625 372.72 91.9961 374.697 90.8633C376.695 89.7305 378.199 88.2681 379.208 86.4762C380.238 84.6843 380.753 82.7997 380.753 80.8224V74.1491C380.444 74.5199 379.764 74.8597 378.714 75.1687C377.684 75.457 376.489 75.7145 375.13 75.941C373.791 76.147 372.483 76.3324 371.206 76.4972C369.95 76.6413 368.93 76.7649 368.148 76.8679C366.253 77.1151 364.482 77.5167 362.834 78.0728C361.207 78.6083 359.888 79.4219 358.879 80.5135C357.891 81.5845 357.396 83.0469 357.396 84.9006C357.396 87.4339 358.333 89.3494 360.208 90.647C362.103 91.924 364.502 92.5625 367.406 92.5625ZM408.643 69.4531V98H401.352V34.7273H408.643V57.9602H409.261C410.373 55.5092 412.042 53.5629 414.266 52.1211C416.511 50.6587 419.498 49.9276 423.226 49.9276C426.459 49.9276 429.291 50.5763 431.722 51.8739C434.152 53.1509 436.037 55.1179 437.375 57.7749C438.735 60.4112 439.415 63.7685 439.415 67.8466V98H432.123V68.3409C432.123 64.5717 431.145 61.6573 429.188 59.5977C427.252 57.5174 424.564 56.4773 421.125 56.4773C418.736 56.4773 416.593 56.9819 414.699 57.9911C412.824 59.0004 411.341 60.473 410.25 62.4091C409.179 64.3452 408.643 66.6932 408.643 69.4531ZM472.032 98.9886C467.748 98.9886 463.989 97.9691 460.755 95.93C457.542 93.891 455.029 91.0384 453.217 87.3722C451.425 83.706 450.529 79.4219 450.529 74.5199C450.529 69.5767 451.425 65.2617 453.217 61.5749C455.029 57.8881 457.542 55.0252 460.755 52.9862C463.989 50.9471 467.748 49.9276 472.032 49.9276C476.316 49.9276 480.064 50.9471 483.278 52.9862C486.511 55.0252 489.024 57.8881 490.816 61.5749C492.628 65.2617 493.535 69.5767 493.535 74.5199C493.535 79.4219 492.628 83.706 490.816 87.3722C489.024 91.0384 486.511 93.891 483.278 95.93C480.064 97.9691 476.316 98.9886 472.032 98.9886ZM472.032 92.4389C475.286 92.4389 477.964 91.6048 480.064 89.9364C482.165 88.2681 483.72 86.0746 484.73 83.3558C485.739 80.6371 486.243 77.6918 486.243 74.5199C486.243 71.348 485.739 68.3924 484.73 65.6531C483.72 62.9137 482.165 60.6996 480.064 59.0107C477.964 57.3217 475.286 56.4773 472.032 56.4773C468.778 56.4773 466.1 57.3217 463.999 59.0107C461.898 60.6996 460.343 62.9137 459.334 65.6531C458.325 68.3924 457.82 71.348 457.82 74.5199C457.82 77.6918 458.325 80.6371 459.334 83.3558C460.343 86.0746 461.898 88.2681 463.999 89.9364C466.1 91.6048 468.778 92.4389 472.032 92.4389ZM523.943 98.9886C519.659 98.9886 515.9 97.9691 512.666 95.93C509.453 93.891 506.94 91.0384 505.128 87.3722C503.336 83.706 502.44 79.4219 502.44 74.5199C502.44 69.5767 503.336 65.2617 505.128 61.5749C506.94 57.8881 509.453 55.0252 512.666 52.9862C515.9 50.9471 519.659 49.9276 523.943 49.9276C528.227 49.9276 531.976 50.9471 535.189 52.9862C538.422 55.0252 540.935 57.8881 542.727 61.5749C544.54 65.2617 545.446 69.5767 545.446 74.5199C545.446 79.4219 544.54 83.706 542.727 87.3722C540.935 91.0384 538.422 93.891 535.189 95.93C531.976 97.9691 528.227 98.9886 523.943 98.9886ZM523.943 92.4389C527.197 92.4389 529.875 91.6048 531.976 89.9364C534.076 88.2681 535.631 86.0746 536.641 83.3558C537.65 80.6371 538.155 77.6918 538.155 74.5199C538.155 71.348 537.65 68.3924 536.641 65.6531C535.631 62.9137 534.076 60.6996 531.976 59.0107C529.875 57.3217 527.197 56.4773 523.943 56.4773C520.689 56.4773 518.011 57.3217 515.91 59.0107C513.809 60.6996 512.254 62.9137 511.245 65.6531C510.236 68.3924 509.731 71.348 509.731 74.5199C509.731 77.6918 510.236 80.6371 511.245 83.3558C512.254 86.0746 513.809 88.2681 515.91 89.9364C518.011 91.6048 520.689 92.4389 523.943 92.4389ZM566.215 34.7273L565.597 80.2045H558.429L557.811 34.7273H566.215ZM562.013 98.4943C560.489 98.4943 559.181 97.9485 558.089 96.8569C556.998 95.7653 556.452 94.4574 556.452 92.9332C556.452 91.4091 556.998 90.1012 558.089 89.0096C559.181 87.918 560.489 87.3722 562.013 87.3722C563.537 87.3722 564.845 87.918 565.937 89.0096C567.028 90.1012 567.574 91.4091 567.574 92.9332C567.574 93.9425 567.317 94.8693 566.802 95.7138C566.308 96.5582 565.638 97.2379 564.794 97.7528C563.97 98.2472 563.043 98.4943 562.013 98.4943ZM301.662 139.727H310.807L332.31 192.249H333.051L354.554 139.727H363.699V203H356.531V154.928H355.913L336.141 203H329.22L309.447 154.928H308.83V203H301.662V139.727ZM397.969 203.989C393.397 203.989 389.452 202.979 386.136 200.961C382.841 198.922 380.297 196.08 378.505 192.434C376.734 188.768 375.848 184.504 375.848 179.643C375.848 174.783 376.734 170.499 378.505 166.791C380.297 163.063 382.789 160.159 385.982 158.079C389.195 155.978 392.943 154.928 397.228 154.928C399.699 154.928 402.14 155.339 404.55 156.163C406.959 156.987 409.153 158.326 411.13 160.18C413.108 162.013 414.683 164.443 415.857 167.471C417.031 170.499 417.618 174.227 417.618 178.655V181.744H381.039V175.442H410.203C410.203 172.764 409.668 170.375 408.597 168.274C407.546 166.173 406.043 164.515 404.086 163.3C402.15 162.085 399.864 161.477 397.228 161.477C394.323 161.477 391.811 162.198 389.689 163.64C387.588 165.061 385.972 166.915 384.839 169.201C383.706 171.487 383.139 173.938 383.139 176.554V180.756C383.139 184.339 383.757 187.377 384.993 189.87C386.25 192.341 387.99 194.226 390.214 195.523C392.439 196.8 395.024 197.439 397.969 197.439C399.885 197.439 401.615 197.171 403.159 196.636C404.725 196.08 406.074 195.256 407.207 194.164C408.339 193.052 409.215 191.672 409.833 190.024L416.877 192.001C416.135 194.391 414.889 196.491 413.138 198.304C411.388 200.096 409.225 201.496 406.65 202.506C404.076 203.494 401.182 203.989 397.969 203.989ZM462.323 166.173L455.773 168.027C455.361 166.935 454.754 165.875 453.951 164.845C453.168 163.794 452.097 162.929 450.737 162.25C449.378 161.57 447.638 161.23 445.516 161.23C442.612 161.23 440.192 161.9 438.256 163.238C436.34 164.556 435.383 166.235 435.383 168.274C435.383 170.087 436.042 171.518 437.36 172.569C438.678 173.619 440.738 174.494 443.539 175.195L450.583 176.925C454.826 177.955 457.987 179.53 460.068 181.652C462.148 183.752 463.188 186.461 463.188 189.777C463.188 192.496 462.405 194.926 460.84 197.068C459.295 199.21 457.133 200.899 454.352 202.135C451.572 203.371 448.338 203.989 444.651 203.989C439.811 203.989 435.805 202.938 432.633 200.837C429.461 198.737 427.453 195.668 426.609 191.631L433.529 189.901C434.188 192.455 435.434 194.37 437.267 195.647C439.121 196.924 441.541 197.562 444.528 197.562C447.926 197.562 450.624 196.842 452.622 195.4C454.641 193.937 455.65 192.187 455.65 190.148C455.65 188.5 455.073 187.12 453.92 186.008C452.766 184.875 450.995 184.031 448.606 183.474L440.697 181.621C436.351 180.591 433.158 178.995 431.119 176.832C429.101 174.649 428.092 171.92 428.092 168.645C428.092 165.967 428.843 163.599 430.347 161.539C431.871 159.479 433.941 157.863 436.557 156.689C439.193 155.515 442.18 154.928 445.516 154.928C450.212 154.928 453.899 155.957 456.577 158.017C459.275 160.077 461.19 162.795 462.323 166.173ZM507.777 166.173L501.227 168.027C500.816 166.935 500.208 165.875 499.405 164.845C498.622 163.794 497.551 162.929 496.192 162.25C494.832 161.57 493.092 161.23 490.97 161.23C488.066 161.23 485.646 161.9 483.71 163.238C481.795 164.556 480.837 166.235 480.837 168.274C480.837 170.087 481.496 171.518 482.814 172.569C484.132 173.619 486.192 174.494 488.993 175.195L496.037 176.925C500.28 177.955 503.442 179.53 505.522 181.652C507.602 183.752 508.642 186.461 508.642 189.777C508.642 192.496 507.86 194.926 506.294 197.068C504.749 199.21 502.587 200.899 499.806 202.135C497.026 203.371 493.792 203.989 490.105 203.989C485.265 203.989 481.259 202.938 478.087 200.837C474.915 198.737 472.907 195.668 472.063 191.631L478.983 189.901C479.642 192.455 480.888 194.37 482.721 195.647C484.575 196.924 486.995 197.562 489.982 197.562C493.38 197.562 496.078 196.842 498.076 195.4C500.095 193.937 501.104 192.187 501.104 190.148C501.104 188.5 500.527 187.12 499.374 186.008C498.22 184.875 496.449 184.031 494.06 183.474L486.151 181.621C481.805 180.591 478.612 178.995 476.573 176.832C474.555 174.649 473.546 171.92 473.546 168.645C473.546 165.967 474.297 163.599 475.801 161.539C477.325 159.479 479.395 157.863 482.011 156.689C484.647 155.515 487.634 154.928 490.97 154.928C495.666 154.928 499.353 155.957 502.031 158.017C504.729 160.077 506.644 162.795 507.777 166.173ZM539.514 203.989C534.941 203.989 530.997 202.979 527.681 200.961C524.386 198.922 521.842 196.08 520.05 192.434C518.279 188.768 517.393 184.504 517.393 179.643C517.393 174.783 518.279 170.499 520.05 166.791C521.842 163.063 524.334 160.159 527.527 158.079C530.74 155.978 534.488 154.928 538.772 154.928C541.244 154.928 543.685 155.339 546.095 156.163C548.504 156.987 550.698 158.326 552.675 160.18C554.652 162.013 556.228 164.443 557.402 167.471C558.576 170.499 559.163 174.227 559.163 178.655V181.744H522.584V175.442H551.748C551.748 172.764 551.213 170.375 550.142 168.274C549.091 166.173 547.588 164.515 545.631 163.3C543.695 162.085 541.409 161.477 538.772 161.477C535.868 161.477 533.356 162.198 531.234 163.64C529.133 165.061 527.516 166.915 526.384 169.201C525.251 171.487 524.684 173.938 524.684 176.554V180.756C524.684 184.339 525.302 187.377 526.538 189.87C527.794 192.341 529.535 194.226 531.759 195.523C533.984 196.8 536.569 197.439 539.514 197.439C541.429 197.439 543.16 197.171 544.704 196.636C546.27 196.08 547.619 195.256 548.752 194.164C549.884 193.052 550.76 191.672 551.378 190.024L558.422 192.001C557.68 194.391 556.434 196.491 554.683 198.304C552.933 200.096 550.77 201.496 548.195 202.506C545.621 203.494 542.727 203.989 539.514 203.989ZM577.546 174.453V203H570.254V155.545H577.298V162.96H577.916C579.028 160.55 580.717 158.614 582.983 157.152C585.249 155.669 588.173 154.928 591.757 154.928C594.97 154.928 597.782 155.587 600.191 156.905C602.601 158.202 604.476 160.18 605.814 162.837C607.153 165.473 607.823 168.81 607.823 172.847V203H600.531V173.341C600.531 169.613 599.563 166.709 597.627 164.629C595.691 162.528 593.034 161.477 589.656 161.477C587.329 161.477 585.249 161.982 583.416 162.991C581.603 164 580.172 165.473 579.121 167.409C578.071 169.345 577.546 171.693 577.546 174.453ZM640.301 221.784C636.779 221.784 633.751 221.331 631.218 220.425C628.684 219.539 626.573 218.365 624.884 216.903C623.216 215.461 621.887 213.916 620.899 212.268L626.707 208.19C627.366 209.055 628.2 210.044 629.21 211.156C630.219 212.289 631.599 213.267 633.349 214.091C635.121 214.936 637.438 215.358 640.301 215.358C644.132 215.358 647.293 214.431 649.786 212.577C652.278 210.724 653.524 207.82 653.524 203.865V194.226H652.906C652.37 195.091 651.608 196.162 650.62 197.439C649.652 198.695 648.251 199.818 646.418 200.806C644.605 201.775 642.154 202.259 639.065 202.259C635.234 202.259 631.794 201.352 628.746 199.54C625.718 197.727 623.319 195.091 621.548 191.631C619.797 188.17 618.922 183.969 618.922 179.026C618.922 174.165 619.776 169.932 621.486 166.328C623.195 162.703 625.574 159.902 628.623 157.924C631.671 155.926 635.193 154.928 639.189 154.928C642.278 154.928 644.729 155.442 646.542 156.472C648.375 157.482 649.775 158.635 650.743 159.933C651.732 161.21 652.494 162.26 653.029 163.084H653.771V155.545H660.815V204.359C660.815 208.438 659.888 211.754 658.034 214.308C656.201 216.882 653.73 218.767 650.62 219.961C647.53 221.176 644.091 221.784 640.301 221.784ZM640.054 195.709C642.978 195.709 645.45 195.039 647.468 193.701C649.487 192.362 651.021 190.436 652.072 187.923C653.122 185.411 653.647 182.403 653.647 178.902C653.647 175.483 653.132 172.466 652.103 169.85C651.073 167.234 649.549 165.185 647.53 163.702C645.512 162.219 643.02 161.477 640.054 161.477C636.964 161.477 634.39 162.26 632.33 163.825C630.291 165.391 628.756 167.491 627.727 170.128C626.717 172.764 626.213 175.689 626.213 178.902C626.213 182.197 626.728 185.112 627.757 187.645C628.808 190.158 630.353 192.135 632.392 193.577C634.451 194.998 637.005 195.709 640.054 195.709ZM694.058 203.989C689.485 203.989 685.541 202.979 682.225 200.961C678.93 198.922 676.386 196.08 674.594 192.434C672.823 188.768 671.937 184.504 671.937 179.643C671.937 174.783 672.823 170.499 674.594 166.791C676.386 163.063 678.878 160.159 682.071 158.079C685.284 155.978 689.032 154.928 693.316 154.928C695.788 154.928 698.229 155.339 700.638 156.163C703.048 156.987 705.242 158.326 707.219 160.18C709.196 162.013 710.772 164.443 711.946 167.471C713.12 170.499 713.707 174.227 713.707 178.655V181.744H677.127V175.442H706.292C706.292 172.764 705.757 170.375 704.686 168.274C703.635 166.173 702.132 164.515 700.175 163.3C698.239 162.085 695.953 161.477 693.316 161.477C690.412 161.477 687.9 162.198 685.778 163.64C683.677 165.061 682.06 166.915 680.928 169.201C679.795 171.487 679.228 173.938 679.228 176.554V180.756C679.228 184.339 679.846 187.377 681.082 189.87C682.338 192.341 684.079 194.226 686.303 195.523C688.528 196.8 691.113 197.439 694.058 197.439C695.973 197.439 697.703 197.171 699.248 196.636C700.814 196.08 702.163 195.256 703.295 194.164C704.428 193.052 705.304 191.672 705.922 190.024L712.966 192.001C712.224 194.391 710.978 196.491 709.227 198.304C707.477 200.096 705.314 201.496 702.739 202.506C700.165 203.494 697.271 203.989 694.058 203.989ZM724.798 203V155.545H731.842V162.713H732.337C733.202 160.365 734.767 158.46 737.033 156.998C739.298 155.535 741.852 154.804 744.695 154.804C745.23 154.804 745.9 154.814 746.703 154.835C747.506 154.855 748.114 154.886 748.526 154.928V162.342C748.278 162.281 747.712 162.188 746.826 162.064C745.961 161.92 745.045 161.848 744.077 161.848C741.77 161.848 739.71 162.332 737.898 163.3C736.106 164.248 734.685 165.566 733.634 167.255C732.604 168.923 732.089 170.828 732.089 172.97V203H724.798Z" fill="#333333"/>
<path fill-rule="evenodd" clip-rule="evenodd" d="M233.451 107.387L214.018 105.066L213.893 -0.00195312L258.965 5.70621L233.451 107.387ZM205.994 143.392L208.878 119.87L235.395 123.131L232.574 146.654L205.994 143.392ZM167.754 23.7089C185.432 36.9234 194.501 54.4661 194.961 76.3369C194.501 98.2078 185.432 115.771 167.754 129.028C150.118 142.284 126.714 149.1 97.5436 149.477C68.331 149.1 44.8856 142.284 27.2076 129.028C9.52957 115.771 0.460689 98.2078 0.000976562 76.3369C0.460689 54.4661 9.52957 36.9234 27.2076 23.7089C44.8856 10.4526 68.331 3.63622 97.5436 3.25986C126.673 3.63622 150.076 10.4526 167.754 23.7089Z" fill="#7B0099"/>
<path fill-rule="evenodd" clip-rule="evenodd" d="M154.339 58.2713L147.757 59.4631L140.548 61.0312C139.127 61.5749 135.846 63.7912 130.706 67.6803C125.607 71.5276 120.55 75.6467 115.535 80.0376C110.52 84.4285 107.532 87.6694 106.571 89.7603C106.153 91.8512 105.944 94.3393 105.944 97.2248L105.756 101.678C105.756 103.351 105.923 105.233 106.257 107.324L107.072 112.718L115.911 112.907L125.252 113.157L124.876 118.803L112.777 118.677H94.9735L81.809 118.991L68.7072 119.117L69.6476 113.722L78.0478 113.534C81.8508 113.45 84.5673 112.781 86.1972 111.527C86.7823 111.025 87.0957 110.105 87.1375 108.767L87.0748 101.302V97.6639C87.1166 95.6984 86.9704 93.1057 86.636 89.8857C86.0509 88.4639 83.5225 84.9094 79.0508 79.2221C74.6208 73.5349 69.8983 67.743 64.8833 61.8467C59.7846 55.9085 56.0234 51.9149 53.5994 49.8658L45.638 48.674L36.8617 47.4822L36.7363 42.5895L46.2649 42.3386C51.6143 42.5058 57.6115 42.4849 64.2564 42.2758L81.5583 42.1504L94.284 42.5895L93.6571 46.8549L84.9435 47.6076L75.8537 48.5486C80.2001 54.9467 84.9434 61.4076 90.0839 67.9312C95.1407 74.413 98.8602 79.3267 101.242 82.6721C102.245 81.4176 104.544 79.3476 108.138 76.4621L118.732 67.5549C122.159 64.544 124.103 62.1603 124.562 60.404L116.35 59.0867L109.266 58.2713L108.263 52.7513C110.102 52.5422 113.759 52.4795 119.234 52.5631L133.715 52.7513L146.817 52.814L157.975 53.0649L154.339 58.2713Z" fill="white"/>
<path fill-rule="evenodd" clip-rule="evenodd" d="M186.608 201.486C204.172 201.486 219.139 203.045 231.509 206.164C243.974 209.282 250.206 213.014 250.206 217.36C250.206 221.707 243.974 225.439 231.509 228.557C219.139 231.676 204.172 233.235 186.608 233.235C169.044 233.235 154.029 231.676 141.564 228.557C129.194 225.439 123.009 221.707 123.009 217.36C123.009 213.014 129.194 209.282 141.564 206.164C154.029 203.045 169.044 201.486 186.608 201.486Z" fill="url(#paint0_radial_143_99)"/>
<path fill-rule="evenodd" clip-rule="evenodd" d="M186.304 89.2578C205.258 89.7298 221.086 96.1966 233.785 108.658C246.39 121.12 252.93 136.744 253.403 155.53C252.93 174.317 246.39 189.941 233.785 202.402C221.18 214.864 205.353 221.331 186.304 221.803C167.254 221.331 151.379 214.864 138.68 202.402C126.075 189.941 119.535 174.317 119.062 155.53C119.535 136.744 126.075 121.12 138.68 108.658C151.379 96.1966 167.254 89.7298 186.304 89.2578Z" fill="#333333"/>
<path fill-rule="evenodd" clip-rule="evenodd" d="M230.657 105.4C243.262 117.862 249.802 133.486 250.276 152.272C249.802 171.059 243.262 186.683 230.657 199.145C217.958 211.606 202.13 218.073 183.176 218.545C164.126 218.073 148.251 211.606 135.552 199.145C122.947 186.683 116.407 171.059 115.934 152.272C116.407 133.486 122.947 117.862 135.552 105.4C148.251 92.9388 164.126 86.472 183.176 86C202.225 86.472 218.052 92.9388 230.657 105.4Z" fill="url(#paint1_radial_143_99)"/>
<path fill-rule="evenodd" clip-rule="evenodd" d="M239.045 152.697C238.665 169.312 233.121 183.143 222.412 194.188C211.702 205.139 198.292 210.85 182.18 211.322C166.163 210.85 152.8 205.139 142.091 194.188C131.381 183.143 125.837 169.312 125.458 152.697C125.837 136.176 131.381 122.393 142.091 111.347C152.8 100.302 166.163 94.5905 182.18 94.2129C198.292 94.5905 211.702 100.302 222.412 111.347C233.026 122.393 238.571 136.176 239.045 152.697Z" fill="url(#paint2_radial_143_99)"/>
<path fill-rule="evenodd" clip-rule="evenodd" d="M131.713 170.539C135.883 184.889 144.034 196.217 156.165 204.525H148.915C136.12 196.5 127.449 185.172 122.899 170.539H131.713Z" fill="white" fill-opacity="0.466667"/>
<path fill-rule="evenodd" clip-rule="evenodd" d="M180.901 93.7891L193.269 95.0635L189.999 94.9219C172.94 95.394 158.724 101.247 147.351 112.481C135.978 123.81 130.102 137.923 129.723 154.822C129.723 159.165 130.149 163.318 131.002 167.283H122.046C121.004 162.941 120.482 158.409 120.482 153.689C120.956 136.696 126.832 122.583 138.11 111.348C149.483 100.114 163.747 94.2611 180.901 93.7891Z" fill="url(#paint3_linear_143_99)"/>
<path fill-rule="evenodd" clip-rule="evenodd" d="M135.42 149.109H231.521V151.092C231.805 169.501 228.299 184.134 221.001 194.99C213.704 205.941 201.193 211.511 183.471 211.7C165.748 211.511 153.238 205.941 145.94 194.99C138.643 184.134 135.136 169.501 135.42 151.092V149.109Z" fill="#CC660B"/>
<path fill-rule="evenodd" clip-rule="evenodd" d="M228.962 168.509H138.405V165.252H228.962V168.509Z" fill="black"/>
<path fill-rule="evenodd" clip-rule="evenodd" d="M183.471 209.859C170.392 209.765 159.493 204.714 150.774 194.707C142.149 184.606 137.648 170.067 137.269 151.092H229.815C229.436 170.067 224.934 184.606 216.31 194.707C207.591 204.714 196.644 209.765 183.471 209.859Z" fill="url(#paint4_radial_143_99)"/>
<path d="M183.471 209.859C170.392 209.765 159.493 204.714 150.774 194.707C142.149 184.606 137.648 170.067 137.269 151.092H229.815C229.436 170.067 224.934 184.606 216.31 194.707C207.591 204.714 196.644 209.765 183.471 209.859Z" stroke="black" stroke-opacity="0.01" stroke-width="1.00002" stroke-linecap="round" stroke-linejoin="round"/>
<path fill-rule="evenodd" clip-rule="evenodd" d="M230.1 151.092V165.253H137.269V151.092H230.1Z" fill="url(#paint5_radial_143_99)"/>
<path fill-rule="evenodd" clip-rule="evenodd" d="M227.825 152.933H204.084H162.857H139.116C139.211 169.642 142.623 182.906 149.352 192.725C155.986 202.637 167.359 207.688 183.471 207.877C199.582 207.688 210.955 202.637 217.589 192.725C224.318 182.906 227.73 169.642 227.825 152.933ZM231.521 149.109V151.092C231.805 169.501 228.299 184.134 221.001 194.99C213.704 205.941 201.193 211.511 183.471 211.7C165.748 211.511 153.238 205.941 145.94 194.99C138.643 184.134 135.136 169.501 135.42 151.092V149.109H231.521Z" fill="#CC660B"/>
<path fill-rule="evenodd" clip-rule="evenodd" d="M171.245 128.859C170.866 133.39 168.733 135.892 164.847 136.364C160.962 135.892 158.829 133.39 158.45 128.859C158.829 124.327 160.962 121.826 164.847 121.354C168.733 121.826 170.866 124.327 171.245 128.859Z" fill="#2B37A5"/>
<path fill-rule="evenodd" clip-rule="evenodd" d="M204.937 128.718C204.558 133.25 202.426 135.751 198.54 136.223C194.654 135.751 192.522 133.25 192.143 128.718C192.522 124.187 194.654 121.685 198.54 121.213C202.426 121.685 204.558 124.187 204.937 128.718Z" fill="#2B37A5"/>
</g>
<defs>
<radialGradient id="paint0_radial_143_99" cx="0" cy="0" r="1" gradientUnits="userSpaceOnUse" gradientTransform="translate(186.608 217.36) rotate(90) scale(16.0229 63.1235)">
<stop offset="0.27451" stop-opacity="0.501961"/>
<stop offset="1" stop-opacity="0"/>
</radialGradient>
<radialGradient id="paint1_radial_143_99" cx="0" cy="0" r="1" gradientUnits="userSpaceOnUse" gradientTransform="translate(183.176 152.272) scale(66.847 66.5869)">
<stop stop-color="#F9F966"/>
<stop offset="1" stop-color="#F69D11"/>
</radialGradient>
<radialGradient id="paint2_radial_143_99" cx="0" cy="0" r="1" gradientUnits="userSpaceOnUse" gradientTransform="translate(182.18 152.697) scale(57.7632 57.5385)">
<stop stop-color="#F5F7BE" stop-opacity="0.145098"/>
<stop offset="1" stop-color="#D29415" stop-opacity="0.145098"/>
</radialGradient>
<linearGradient id="paint3_linear_143_99" x1="156.876" y1="167.265" x2="156.876" y2="93.9495" gradientUnits="userSpaceOnUse">
<stop stop-color="white"/>
<stop offset="0.992157" stop-color="#F2F492"/>
</linearGradient>
<radialGradient id="paint4_radial_143_99" cx="0" cy="0" r="1" gradientUnits="userSpaceOnUse" gradientTransform="translate(183.613 194.707) scale(54.9682 54.7544)">
<stop offset="0.00392157" stop-color="#F57E7F"/>
<stop offset="0.419608" stop-color="#DE1407"/>
<stop offset="0.878431" stop-color="#3E0708"/>
</radialGradient>
<radialGradient id="paint5_radial_143_99" cx="0" cy="0" r="1" gradientUnits="userSpaceOnUse" gradientTransform="translate(183.755 158.172) scale(47.0491 46.866)">
<stop stop-color="white"/>
<stop offset="0.423529" stop-color="#E6F8FA"/>
<stop offset="0.623529" stop-color="#A8E4EC"/>
<stop offset="1"/>
</radialGradient>
<clipPath id="clip0_143_99">
<rect width="896" height="234" fill="white"/>
</clipPath>
</defs>
</svg>
