<svg width="32" height="32" viewBox="0 0 1031 1031" fill="none" xmlns="http://www.w3.org/2000/svg">
<path d="M156.575 832.014L156.499 832.161L156.425 832.308C148.567 847.849 140.599 866.555 137.224 885.96C133.81 905.587 134.47 930.037 149.341 952.095L181.284 930.558L149.341 952.095C163.564 973.192 183.614 982.827 201.656 987.06C217.516 990.781 234.031 990.769 245.083 990.761C245.585 990.761 246.076 990.761 246.555 990.761C273.741 990.761 376.93 982.016 450.308 964.389C523.427 946.824 590.308 921.768 650.713 889.006C711.211 856.408 760.052 819.201 795.469 776.644L795.533 776.566L795.597 776.489C831.202 733.26 851.576 686.068 851.576 635.561C851.576 613.575 848.517 592.093 842.34 571.247C835.565 546.519 822.031 524.22 803.771 504.261C785.418 484.159 761.088 466.291 732.3 450.127C726.419 446.747 720.252 443.43 713.805 440.173C723.839 435.268 733.583 430.234 743.033 425.066L743.102 425.029L743.17 424.991C779.071 405.178 810.343 384.106 836.59 361.612L836.618 361.588L836.646 361.565C888.32 317.115 923.516 267.129 923.516 211.689C923.516 157.119 894.962 114.16 847.69 83.8013C799.577 52.9021 730.002 40.5 645.604 40.5C582.398 40.5 518.998 49.4605 455.496 67.2162C393.334 84.3184 336.928 106.066 286.506 132.657L286.454 132.685L286.402 132.712C235.939 159.517 193.78 189.358 160.943 222.682C128.862 254.858 105.5 291.626 105.5 332.207C105.5 355.105 112.595 378.883 132.745 395.897C151.615 411.831 175.665 416.387 197.914 416.387C228.057 416.387 256.882 407.325 278.123 384.22C287.865 373.624 301.507 361.528 319.646 347.985L319.844 347.837L320.04 347.686C335.181 336.083 354.208 322.389 377.243 306.56L377.427 306.434L377.61 306.306C398.995 291.252 424.082 276.611 453.054 262.473C481.082 248.795 512.62 237.076 547.818 227.449L548.004 227.398L548.19 227.346C581.528 217.877 618.283 212.975 658.684 212.975C684.308 212.975 700.847 217.165 711.009 222.524C712.146 223.124 713.174 223.693 714.1 224.231C713.107 226.216 711.734 228.593 709.838 231.384C703.43 240.819 692.609 252.654 675.952 266.8C662.039 278.593 626.738 298.46 590.539 317.063C586.562 319.107 582.641 321.103 578.816 323.033C573.4 313.085 566.029 305.23 557.561 298.866C540.416 285.982 520.482 279.773 499.347 279.773C465.931 279.773 441.196 303.193 424.399 325.485L424.36 325.537L424.321 325.589C407.73 347.759 388.15 380.94 365.742 423.663C354.492 444.723 342.09 468.662 328.542 495.455L328.435 495.665L328.332 495.876C315.301 522.428 300.677 551.934 284.459 584.398C276.497 600.336 262.817 626.813 251.008 649.529C245.129 660.839 239.754 671.137 235.849 678.609C233.897 682.344 232.313 685.372 231.218 687.464C230.67 688.51 230.245 689.322 229.957 689.872L229.629 690.497L229.547 690.655L229.526 690.694L229.521 690.704L229.52 690.706C229.519 690.707 229.519 690.707 264.503 709.048L229.519 690.707L229.461 690.818L229.403 690.929L156.575 832.014ZM610.244 681.294L610.107 681.471L609.971 681.65C597.016 698.73 578.202 715.349 552.223 730.985C525.773 746.665 493.992 760.352 456.482 771.745C441.807 776.094 426.599 779.884 410.85 783.104C427.195 752.398 443.145 722.342 458.701 692.936C481.958 649.602 506.083 600.651 531.082 546.141C569.109 561.148 591.961 576.425 603.737 590.148C623.027 612.629 627.508 627.641 627.508 636.149C627.508 650.44 622.717 665.232 610.244 681.294Z" fill="#FDFDFD" stroke="#BC4241" stroke-width="79"/>
<path d="M668.5 265.191C668.5 294.631 637.953 318.691 600 318.691C562.047 318.691 531.5 294.631 531.5 265.191C531.5 235.751 562.047 211.691 600 211.691C637.953 211.691 668.5 235.751 668.5 265.191Z" fill="#BC4241" stroke="#BC4241"/>
<path d="M485.319 741.045C472.832 733.403 467.188 717.018 468.323 696.511C469.458 676.026 477.359 651.564 491.782 627.998C506.205 604.432 524.393 586.266 542.118 575.935C559.863 565.594 577.022 563.165 589.509 570.807C601.995 578.449 607.639 594.834 606.504 615.341C605.37 635.825 597.469 660.287 583.046 683.854C568.623 707.42 550.434 725.586 532.709 735.916C514.964 746.258 497.805 748.687 485.319 741.045Z" fill="#BC4241" stroke="#BC4241"/>
</svg>
